<?xml version="1.0" encoding="utf-8"?>
<!DOCTYPE score-partwise  PUBLIC "-//Recordare//DTD MusicXML 4.0 Partwise//EN" "http://www.musicxml.org/dtds/partwise.dtd">
<score-partwise version="4.0">
  <work>
    <work-title>Untitled score</work-title>
  </work>
  <movement-title>Fearless Guitar Tab.mxl</movement-title>
  <identification>
    <creator type="composer">Composer / arranger</creator>
    <encoding>
      <encoding-date>2024-11-02</encoding-date>
      <software>music21 v.9.3.0</software>
      <software>MuseScore 4.4.3</software>
      <supports attribute="new-system" element="print" type="yes" value="yes" />
      <supports attribute="new-page" element="print" type="yes" value="yes" />
    </encoding>
  </identification>
  <defaults>
    <scaling>
      <millimeters>6.99911</millimeters>
      <tenths>40</tenths>
    </scaling>
    <page-layout>
      <page-height>1596.77</page-height>
      <page-width>1233.87</page-width>
      <page-margins>
        <left-margin>85.7252</left-margin>
        <right-margin>85.7252</right-margin>
        <top-margin>85.7252</top-margin>
        <bottom-margin>85.7252</bottom-margin>
      </page-margins>
    </page-layout>
    <appearance>
      <line-width type="light barline">1.8</line-width>
      <line-width type="heavy barline">5.5</line-width>
      <line-width type="beam">5</line-width>
      <line-width type="bracket">4.5</line-width>
      <line-width type="dashes">1</line-width>
      <line-width type="enclosure">1</line-width>
      <line-width type="ending">1.1</line-width>
      <line-width type="extend">1</line-width>
      <line-width type="leger">1.6</line-width>
      <line-width type="pedal">1.1</line-width>
      <line-width type="octave shift">1.1</line-width>
      <line-width type="slur middle">2.1</line-width>
      <line-width type="slur tip">0.5</line-width>
      <line-width type="staff">1.1</line-width>
      <line-width type="stem">1</line-width>
      <line-width type="tie middle">2.1</line-width>
      <line-width type="tie tip">0.5</line-width>
      <line-width type="tuplet bracket">1</line-width>
      <line-width type="wedge">1.2</line-width>
      <note-size type="cue">70</note-size>
      <note-size type="grace">70</note-size>
      <note-size type="grace-cue">49</note-size>
    </appearance>
    <music-font font-family="Leland" />
    <word-font font-family="Edwin" font-size="10" />
    <lyric-font font-family="Edwin" font-size="10" />
  </defaults>
  <credit page="1">
    <credit-words default-x="616.935484" default-y="1511.049022" font-size="22" justify="center" valign="top">Fearless</credit-words>
  </credit>
  <credit page="1">
    <credit-words default-x="616.935484" default-y="1453.898908" font-size="14" justify="center" valign="top">Subtitle</credit-words>
  </credit>
  <credit page="1">
    <credit-words default-x="1148.145796" default-y="1411.049022" justify="right" valign="bottom">Taylor Swift / arr. Songsterr</credit-words>
  </credit>
  <part-list>
    <score-part id="P1">
      <part-name>Guitar</part-name>
      <part-abbreviation>Guit.</part-abbreviation>
      <score-instrument id="I0d2e3c3955736cd954ab7c0fe294fc5d">
        <instrument-name>Classical Guitar [Tablature]</instrument-name>
        <instrument-abbreviation>Ac Gtr</instrument-abbreviation>
      </score-instrument>
      <midi-instrument id="I0d2e3c3955736cd954ab7c0fe294fc5d">
        <midi-channel>1</midi-channel>
        <midi-program>25</midi-program>
      </midi-instrument>
    </score-part>
  </part-list>
  <!--=========================== Part 1 ===========================-->
  <part id="P1">
    <!--========================= Measure 1 ==========================-->
    <measure implicit="no" number="1" width="221.01">
      <print>
        <system-layout>
          <system-margins>
            <left-margin>50</left-margin>
            <right-margin>0</right-margin>
          </system-margins>
          <top-system-distance>170</top-system-distance>
        </system-layout>
        <staff-layout />
      </print>
      <attributes>
        <divisions>10080</divisions>
        <key>
          <fifths>0</fifths>
        </key>
        <time>
          <beats>4</beats>
          <beat-type>4</beat-type>
        </time>
        <clef>
          <sign>TAB</sign>
          <line>5</line>
        </clef>
        <staff-details print-object="yes">
          <staff-lines>6</staff-lines>
        </staff-details>
      </attributes>
      <direction placement="above">
        <direction-type>
          <metronome parentheses="no">
            <beat-unit>quarter</beat-unit>
            <per-minute>100</per-minute>
          </metronome>
        </direction-type>
        <sound tempo="100" />
      </direction>
      <note default-x="50.06" default-y="-45">
        <rest />
        <duration>5040</duration>
        <type>eighth</type>
      </note>
      <note default-x="77.12" default-y="-15">
        <pitch>
          <step>F</step>
          <octave>4</octave>
        </pitch>
        <duration>5040</duration>
        <type>eighth</type>
        <stem>down</stem>
        <beam number="1">begin</beam>
        <notations>
          <technical>
            <string>2</string>
            <fret>6</fret>
          </technical>
        </notations>
      </note>
      <note default-x="101.28" default-y="0">
        <pitch>
          <step>G</step>
          <octave>4</octave>
        </pitch>
        <duration>5040</duration>
        <type>eighth</type>
        <stem>down</stem>
        <beam number="1">continue</beam>
        <notations>
          <technical>
            <string>1</string>
            <fret>3</fret>
          </technical>
        </notations>
      </note>
      <note default-x="125.45" default-y="-15">
        <pitch>
          <step>F</step>
          <octave>4</octave>
        </pitch>
        <duration>5040</duration>
        <type>eighth</type>
        <stem>down</stem>
        <beam number="1">end</beam>
        <notations>
          <technical>
            <string>2</string>
            <fret>6</fret>
          </technical>
        </notations>
      </note>
      <note default-x="149.61" default-y="0">
        <pitch>
          <step>G</step>
          <octave>4</octave>
        </pitch>
        <duration>10080</duration>
        <type>quarter</type>
        <stem>down</stem>
        <notations>
          <technical>
            <string>1</string>
            <fret>3</fret>
          </technical>
        </notations>
      </note>
      <note default-x="185.86" default-y="0">
        <pitch>
          <step>A</step>
          <octave>4</octave>
        </pitch>
        <duration>10080</duration>
        <tie type="start" />
        <type>quarter</type>
        <stem>down</stem>
        <notations>
          <tied type="start" />
          <technical>
            <string>1</string>
            <fret>5</fret>
          </technical>
        </notations>
      </note>
    </measure>
    <!--========================= Measure 2 ==========================-->
    <measure implicit="no" number="2" width="207.65">
      <note default-x="12.5" default-y="0">
        <pitch>
          <step>A</step>
          <octave>4</octave>
        </pitch>
        <duration>5040</duration>
        <tie type="stop" />
        <type>eighth</type>
        <stem>down</stem>
        <beam number="1">begin</beam>
        <notations>
          <tied type="stop" />
          <technical>
            <string>1</string>
            <fret>5</fret>
          </technical>
        </notations>
      </note>
      <note default-x="36.66" default-y="-15">
        <pitch>
          <step>F</step>
          <octave>4</octave>
        </pitch>
        <duration>5040</duration>
        <type>eighth</type>
        <stem>down</stem>
        <beam number="1">continue</beam>
        <notations>
          <technical>
            <string>2</string>
            <fret>6</fret>
          </technical>
        </notations>
      </note>
      <note default-x="60.83" default-y="0">
        <pitch>
          <step>G</step>
          <octave>4</octave>
        </pitch>
        <duration>5040</duration>
        <type>eighth</type>
        <stem>down</stem>
        <beam number="1">continue</beam>
        <notations>
          <technical>
            <string>1</string>
            <fret>3</fret>
          </technical>
        </notations>
      </note>
      <note default-x="84.99" default-y="-15">
        <pitch>
          <step>F</step>
          <octave>4</octave>
        </pitch>
        <duration>5040</duration>
        <type>eighth</type>
        <stem>down</stem>
        <beam number="1">end</beam>
        <notations>
          <technical>
            <string>2</string>
            <fret>6</fret>
          </technical>
        </notations>
      </note>
      <note default-x="109.16" default-y="0">
        <pitch>
          <step>G</step>
          <octave>4</octave>
        </pitch>
        <duration>5040</duration>
        <type>eighth</type>
        <stem>down</stem>
        <beam number="1">begin</beam>
        <notations>
          <technical>
            <string>1</string>
            <fret>3</fret>
          </technical>
        </notations>
      </note>
      <note default-x="133.32" default-y="0">
        <pitch>
          <step>A</step>
          <octave>4</octave>
        </pitch>
        <duration>5040</duration>
        <type>eighth</type>
        <stem>down</stem>
        <beam number="1">continue</beam>
        <notations>
          <technical>
            <string>1</string>
            <fret>5</fret>
          </technical>
        </notations>
      </note>
      <note default-x="157.49" default-y="0">
        <pitch>
          <step>B</step>
          <alter>-1</alter>
          <octave>4</octave>
        </pitch>
        <duration>5040</duration>
        <type>eighth</type>
        <stem>down</stem>
        <beam number="1">continue</beam>
        <notations>
          <technical>
            <string>1</string>
            <fret>6</fret>
          </technical>
        </notations>
      </note>
      <note default-x="181.65" default-y="0">
        <pitch>
          <step>A</step>
          <octave>4</octave>
        </pitch>
        <duration>5040</duration>
        <tie type="start" />
        <type>eighth</type>
        <stem>down</stem>
        <beam number="1">end</beam>
        <notations>
          <tied type="start" />
          <technical>
            <string>1</string>
            <fret>5</fret>
          </technical>
        </notations>
      </note>
    </measure>
    <!--========================= Measure 3 ==========================-->
    <measure implicit="no" number="3" width="195.57">
      <note default-x="12.5" default-y="0">
        <pitch>
          <step>A</step>
          <octave>4</octave>
        </pitch>
        <duration>5040</duration>
        <tie type="stop" />
        <type>eighth</type>
        <stem>down</stem>
        <beam number="1">begin</beam>
        <notations>
          <tied type="stop" />
          <technical>
            <string>1</string>
            <fret>5</fret>
          </technical>
        </notations>
      </note>
      <note default-x="36.66" default-y="-15">
        <pitch>
          <step>F</step>
          <octave>4</octave>
        </pitch>
        <duration>5040</duration>
        <type>eighth</type>
        <stem>down</stem>
        <beam number="1">continue</beam>
        <notations>
          <technical>
            <string>2</string>
            <fret>6</fret>
          </technical>
        </notations>
      </note>
      <note default-x="60.83" default-y="0">
        <pitch>
          <step>G</step>
          <octave>4</octave>
        </pitch>
        <duration>5040</duration>
        <type>eighth</type>
        <stem>down</stem>
        <beam number="1">continue</beam>
        <notations>
          <technical>
            <string>1</string>
            <fret>3</fret>
          </technical>
        </notations>
      </note>
      <note default-x="84.99" default-y="-15">
        <pitch>
          <step>F</step>
          <octave>4</octave>
        </pitch>
        <duration>5040</duration>
        <type>eighth</type>
        <stem>down</stem>
        <beam number="1">end</beam>
        <notations>
          <technical>
            <string>2</string>
            <fret>6</fret>
          </technical>
        </notations>
      </note>
      <note default-x="109.16" default-y="0">
        <pitch>
          <step>G</step>
          <octave>4</octave>
        </pitch>
        <duration>10080</duration>
        <type>quarter</type>
        <stem>down</stem>
        <notations>
          <technical>
            <string>1</string>
            <fret>3</fret>
          </technical>
        </notations>
      </note>
      <note default-x="145.4" default-y="0">
        <pitch>
          <step>A</step>
          <octave>4</octave>
        </pitch>
        <duration>5040</duration>
        <type>eighth</type>
        <stem>down</stem>
        <beam number="1">begin</beam>
        <notations>
          <technical>
            <string>1</string>
            <fret>5</fret>
          </technical>
        </notations>
      </note>
      <note default-x="169.57" default-y="-15">
        <pitch>
          <step>F</step>
          <octave>4</octave>
        </pitch>
        <duration>5040</duration>
        <tie type="start" />
        <type>eighth</type>
        <stem>down</stem>
        <beam number="1">end</beam>
        <notations>
          <tied type="start" />
          <technical>
            <string>2</string>
            <fret>6</fret>
          </technical>
        </notations>
      </note>
    </measure>
    <!--========================= Measure 4 ==========================-->
    <measure implicit="no" number="4" width="207.65">
      <note default-x="12.5" default-y="-15">
        <pitch>
          <step>F</step>
          <octave>4</octave>
        </pitch>
        <duration>5040</duration>
        <tie type="stop" />
        <type>eighth</type>
        <stem>down</stem>
        <beam number="1">begin</beam>
        <notations>
          <tied type="stop" />
          <technical>
            <string>2</string>
            <fret>6</fret>
            <string>1</string>
            <fret>8</fret>
          </technical>
        </notations>
      </note>
      <note default-x="12.5" default-y="0">
        <chord />
        <pitch>
          <step>C</step>
          <octave>5</octave>
        </pitch>
        <duration>5040</duration>
        <tie type="start" />
        <type>eighth</type>
        <stem>down</stem>
        <notations>
          <tied type="start" />
        </notations>
      </note>
      <note default-x="36.66" default-y="-15">
        <pitch>
          <step>F</step>
          <octave>4</octave>
        </pitch>
        <duration>5040</duration>
        <type>eighth</type>
        <stem>down</stem>
        <beam number="1">continue</beam>
        <notations>
          <technical>
            <string>2</string>
            <fret>6</fret>
            <string>1</string>
            <fret>8</fret>
          </technical>
        </notations>
      </note>
      <note default-x="36.66" default-y="0">
        <chord />
        <pitch>
          <step>C</step>
          <octave>5</octave>
        </pitch>
        <duration>5040</duration>
        <tie type="stop" />
        <type>eighth</type>
        <stem>down</stem>
        <notations>
          <tied type="stop" />
        </notations>
      </note>
      <note default-x="60.83" default-y="0">
        <pitch>
          <step>B</step>
          <alter>-1</alter>
          <octave>4</octave>
        </pitch>
        <duration>5040</duration>
        <tie type="start" />
        <type>eighth</type>
        <stem>down</stem>
        <beam number="1">continue</beam>
        <notations>
          <tied type="start" />
          <technical>
            <string>1</string>
            <fret>6</fret>
          </technical>
        </notations>
      </note>
      <note default-x="84.99" default-y="-15">
        <pitch>
          <step>F</step>
          <octave>4</octave>
        </pitch>
        <duration>5040</duration>
        <type>eighth</type>
        <stem>down</stem>
        <beam number="1">end</beam>
        <notations>
          <technical>
            <string>2</string>
            <fret>6</fret>
            <string>1</string>
            <fret>6</fret>
          </technical>
        </notations>
      </note>
      <note default-x="84.99" default-y="0">
        <chord />
        <pitch>
          <step>A</step>
          <alter>1</alter>
          <octave>4</octave>
        </pitch>
        <duration>5040</duration>
        <tie type="stop" />
        <type>eighth</type>
        <stem>down</stem>
        <notations>
          <tied type="stop" />
        </notations>
      </note>
      <note default-x="109.16" default-y="0">
        <pitch>
          <step>A</step>
          <octave>4</octave>
        </pitch>
        <duration>5040</duration>
        <tie type="start" />
        <type>eighth</type>
        <stem>down</stem>
        <beam number="1">begin</beam>
        <notations>
          <tied type="start" />
          <technical>
            <string>1</string>
            <fret>5</fret>
          </technical>
        </notations>
      </note>
      <note default-x="133.32" default-y="-15">
        <pitch>
          <step>F</step>
          <octave>4</octave>
        </pitch>
        <duration>5040</duration>
        <type>eighth</type>
        <stem>down</stem>
        <beam number="1">continue</beam>
        <notations>
          <technical>
            <string>2</string>
            <fret>6</fret>
            <string>1</string>
            <fret>5</fret>
          </technical>
        </notations>
      </note>
      <note default-x="133.32" default-y="0">
        <chord />
        <pitch>
          <step>A</step>
          <octave>4</octave>
        </pitch>
        <duration>5040</duration>
        <tie type="stop" />
        <type>eighth</type>
        <stem>down</stem>
        <notations>
          <tied type="stop" />
        </notations>
      </note>
      <note default-x="157.49" default-y="0">
        <pitch>
          <step>G</step>
          <octave>4</octave>
        </pitch>
        <duration>5040</duration>
        <tie type="start" />
        <type>eighth</type>
        <stem>down</stem>
        <beam number="1">continue</beam>
        <notations>
          <tied type="start" />
          <technical>
            <string>1</string>
            <fret>3</fret>
          </technical>
        </notations>
      </note>
      <note default-x="181.65" default-y="-15">
        <pitch>
          <step>F</step>
          <octave>4</octave>
        </pitch>
        <duration>5040</duration>
        <type>eighth</type>
        <stem>down</stem>
        <beam number="1">end</beam>
        <notations>
          <technical>
            <string>2</string>
            <fret>6</fret>
          </technical>
        </notations>
      </note>
    </measure>
    <!--========================= Measure 5 ==========================-->
    <measure implicit="no" number="5" width="180.55">
      <note default-x="12.5" default-y="0">
        <pitch>
          <step>G</step>
          <octave>4</octave>
        </pitch>
        <duration>5040</duration>
        <tie type="stop" />
        <type>eighth</type>
        <stem>down</stem>
        <beam number="1">begin</beam>
        <notations>
          <tied type="stop" />
          <technical>
            <string>1</string>
            <fret>3</fret>
          </technical>
        </notations>
      </note>
      <note default-x="36.66" default-y="-15">
        <pitch>
          <step>F</step>
          <octave>4</octave>
        </pitch>
        <duration>5040</duration>
        <type>eighth</type>
        <stem>down</stem>
        <beam number="1">continue</beam>
        <notations>
          <technical>
            <string>2</string>
            <fret>6</fret>
          </technical>
        </notations>
      </note>
      <note default-x="60.83" default-y="0">
        <pitch>
          <step>G</step>
          <octave>4</octave>
        </pitch>
        <duration>5040</duration>
        <type>eighth</type>
        <stem>down</stem>
        <beam number="1">continue</beam>
        <notations>
          <technical>
            <string>1</string>
            <fret>3</fret>
          </technical>
        </notations>
      </note>
      <note default-x="84.99" default-y="-15">
        <pitch>
          <step>F</step>
          <octave>4</octave>
        </pitch>
        <duration>5040</duration>
        <type>eighth</type>
        <stem>down</stem>
        <beam number="1">end</beam>
        <notations>
          <technical>
            <string>2</string>
            <fret>6</fret>
          </technical>
        </notations>
      </note>
      <note default-x="109.16" default-y="0">
        <pitch>
          <step>G</step>
          <octave>4</octave>
        </pitch>
        <duration>10080</duration>
        <type>quarter</type>
        <stem>down</stem>
        <notations>
          <technical>
            <string>1</string>
            <fret>3</fret>
          </technical>
        </notations>
      </note>
      <note default-x="145.4" default-y="0">
        <pitch>
          <step>A</step>
          <octave>4</octave>
        </pitch>
        <duration>10080</duration>
        <tie type="start" />
        <type>quarter</type>
        <stem>down</stem>
        <notations>
          <tied type="start" />
          <technical>
            <string>1</string>
            <fret>5</fret>
          </technical>
        </notations>
      </note>
    </measure>
    <!--========================= Measure 6 ==========================-->
    <measure implicit="no" number="6" width="369.03">
      <print new-system="yes">
        <system-layout>
          <system-margins>
            <left-margin>0</left-margin>
            <right-margin>0</right-margin>
          </system-margins>
          <system-distance>235</system-distance>
        </system-layout>
      </print>
      <note default-x="17.39" default-y="0">
        <pitch>
          <step>A</step>
          <octave>4</octave>
        </pitch>
        <duration>5040</duration>
        <tie type="stop" />
        <type>eighth</type>
        <stem>down</stem>
        <notehead parentheses="yes">normal</notehead>
        <beam number="1">begin</beam>
        <notations>
          <tied type="stop" />
          <technical>
            <string>1</string>
            <fret>5</fret>
          </technical>
        </notations>
      </note>
      <note default-x="61.48" default-y="-15">
        <pitch>
          <step>F</step>
          <octave>4</octave>
        </pitch>
        <duration>5040</duration>
        <type>eighth</type>
        <stem>down</stem>
        <beam number="1">continue</beam>
        <notations>
          <technical>
            <string>2</string>
            <fret>6</fret>
          </technical>
        </notations>
      </note>
      <note default-x="105.57" default-y="0">
        <pitch>
          <step>G</step>
          <octave>4</octave>
        </pitch>
        <duration>5040</duration>
        <type>eighth</type>
        <stem>down</stem>
        <beam number="1">continue</beam>
        <notations>
          <technical>
            <string>1</string>
            <fret>3</fret>
          </technical>
        </notations>
      </note>
      <note default-x="149.66" default-y="-15">
        <pitch>
          <step>F</step>
          <octave>4</octave>
        </pitch>
        <duration>5040</duration>
        <type>eighth</type>
        <stem>down</stem>
        <beam number="1">end</beam>
        <notations>
          <technical>
            <string>2</string>
            <fret>6</fret>
          </technical>
        </notations>
      </note>
      <note default-x="193.76" default-y="0">
        <pitch>
          <step>G</step>
          <octave>4</octave>
        </pitch>
        <duration>5040</duration>
        <type>eighth</type>
        <stem>down</stem>
        <beam number="1">begin</beam>
        <notations>
          <technical>
            <string>1</string>
            <fret>3</fret>
          </technical>
        </notations>
      </note>
      <note default-x="237.85" default-y="0">
        <pitch>
          <step>A</step>
          <octave>4</octave>
        </pitch>
        <duration>5040</duration>
        <type>eighth</type>
        <stem>down</stem>
        <beam number="1">continue</beam>
        <notations>
          <technical>
            <string>1</string>
            <fret>5</fret>
          </technical>
        </notations>
      </note>
      <note default-x="281.94" default-y="0">
        <pitch>
          <step>B</step>
          <alter>-1</alter>
          <octave>4</octave>
        </pitch>
        <duration>5040</duration>
        <type>eighth</type>
        <stem>down</stem>
        <beam number="1">continue</beam>
        <notations>
          <technical>
            <string>1</string>
            <fret>6</fret>
          </technical>
        </notations>
      </note>
      <note default-x="326.03" default-y="0">
        <pitch>
          <step>A</step>
          <octave>4</octave>
        </pitch>
        <duration>5040</duration>
        <tie type="start" />
        <type>eighth</type>
        <stem>down</stem>
        <beam number="1">end</beam>
        <notations>
          <tied type="start" />
          <technical>
            <string>1</string>
            <fret>5</fret>
          </technical>
        </notations>
      </note>
    </measure>
    <!--========================= Measure 7 ==========================-->
    <measure implicit="no" number="7" width="320.05">
      <note default-x="12.5" default-y="0">
        <pitch>
          <step>A</step>
          <octave>4</octave>
        </pitch>
        <duration>5040</duration>
        <tie type="stop" />
        <type>eighth</type>
        <stem>down</stem>
        <beam number="1">begin</beam>
        <notations>
          <tied type="stop" />
          <technical>
            <string>1</string>
            <fret>5</fret>
          </technical>
        </notations>
      </note>
      <note default-x="56.59" default-y="-15">
        <pitch>
          <step>F</step>
          <octave>4</octave>
        </pitch>
        <duration>5040</duration>
        <type>eighth</type>
        <stem>down</stem>
        <beam number="1">continue</beam>
        <notations>
          <technical>
            <string>2</string>
            <fret>6</fret>
          </technical>
        </notations>
      </note>
      <note default-x="100.69" default-y="0">
        <pitch>
          <step>G</step>
          <octave>4</octave>
        </pitch>
        <duration>5040</duration>
        <type>eighth</type>
        <stem>down</stem>
        <beam number="1">continue</beam>
        <notations>
          <technical>
            <string>1</string>
            <fret>3</fret>
          </technical>
        </notations>
      </note>
      <note default-x="144.78" default-y="-15">
        <pitch>
          <step>F</step>
          <octave>4</octave>
        </pitch>
        <duration>5040</duration>
        <type>eighth</type>
        <stem>down</stem>
        <beam number="1">end</beam>
        <notations>
          <technical>
            <string>2</string>
            <fret>6</fret>
          </technical>
        </notations>
      </note>
      <note default-x="188.87" default-y="0">
        <pitch>
          <step>G</step>
          <octave>4</octave>
        </pitch>
        <duration>10080</duration>
        <type>quarter</type>
        <stem>down</stem>
        <notations>
          <technical>
            <string>1</string>
            <fret>3</fret>
          </technical>
        </notations>
      </note>
      <note default-x="255.01" default-y="0">
        <pitch>
          <step>A</step>
          <octave>4</octave>
        </pitch>
        <duration>10080</duration>
        <type>quarter</type>
        <stem>down</stem>
        <notations>
          <technical>
            <string>1</string>
            <fret>5</fret>
          </technical>
        </notations>
      </note>
    </measure>
    <!--========================= Measure 8 ==========================-->
    <measure implicit="no" number="8" width="373.34">
      <note default-x="12.5" default-y="0">
        <pitch>
          <step>C</step>
          <octave>5</octave>
        </pitch>
        <duration>5040</duration>
        <tie type="start" />
        <type>eighth</type>
        <stem>down</stem>
        <beam number="1">begin</beam>
        <notations>
          <tied type="start" />
          <technical>
            <string>1</string>
            <fret>8</fret>
          </technical>
        </notations>
      </note>
      <note default-x="56.59" default-y="-15">
        <pitch>
          <step>F</step>
          <octave>4</octave>
        </pitch>
        <duration>5040</duration>
        <type>eighth</type>
        <stem>down</stem>
        <beam number="1">continue</beam>
        <notations>
          <technical>
            <string>2</string>
            <fret>6</fret>
            <string>1</string>
            <fret>8</fret>
          </technical>
        </notations>
      </note>
      <note default-x="56.59" default-y="0">
        <chord />
        <pitch>
          <step>C</step>
          <octave>5</octave>
        </pitch>
        <duration>5040</duration>
        <tie type="stop" />
        <type>eighth</type>
        <stem>down</stem>
        <notations>
          <tied type="stop" />
        </notations>
      </note>
      <note default-x="100.69" default-y="0">
        <pitch>
          <step>B</step>
          <alter>-1</alter>
          <octave>4</octave>
        </pitch>
        <duration>5040</duration>
        <tie type="start" />
        <type>eighth</type>
        <stem>down</stem>
        <beam number="1">continue</beam>
        <notations>
          <tied type="start" />
          <technical>
            <string>1</string>
            <fret>6</fret>
          </technical>
        </notations>
      </note>
      <note default-x="144.78" default-y="-15">
        <pitch>
          <step>F</step>
          <octave>4</octave>
        </pitch>
        <duration>5040</duration>
        <type>eighth</type>
        <stem>down</stem>
        <beam number="1">end</beam>
        <notations>
          <technical>
            <string>2</string>
            <fret>6</fret>
            <string>1</string>
            <fret>6</fret>
          </technical>
        </notations>
      </note>
      <note default-x="144.78" default-y="0">
        <chord />
        <pitch>
          <step>B</step>
          <alter>-1</alter>
          <octave>4</octave>
        </pitch>
        <duration>5040</duration>
        <tie type="stop" />
        <type>eighth</type>
        <stem>down</stem>
        <notations>
          <tied type="stop" />
        </notations>
      </note>
      <note default-x="188.87" default-y="0">
        <pitch>
          <step>A</step>
          <octave>4</octave>
        </pitch>
        <duration>5040</duration>
        <tie type="start" />
        <type>eighth</type>
        <stem>down</stem>
        <beam number="1">begin</beam>
        <notations>
          <tied type="start" />
          <technical>
            <string>1</string>
            <fret>5</fret>
          </technical>
        </notations>
      </note>
      <note default-x="232.96" default-y="-15">
        <pitch>
          <step>F</step>
          <octave>4</octave>
        </pitch>
        <duration>5040</duration>
        <type>eighth</type>
        <stem>down</stem>
        <beam number="1">continue</beam>
        <notations>
          <technical>
            <string>2</string>
            <fret>6</fret>
            <string>1</string>
            <fret>5</fret>
          </technical>
        </notations>
      </note>
      <note default-x="232.96" default-y="0">
        <chord />
        <pitch>
          <step>A</step>
          <octave>4</octave>
        </pitch>
        <duration>5040</duration>
        <tie type="stop" />
        <type>eighth</type>
        <stem>down</stem>
        <notations>
          <tied type="stop" />
        </notations>
      </note>
      <note default-x="277.06" default-y="0">
        <pitch>
          <step>G</step>
          <octave>4</octave>
        </pitch>
        <duration>5040</duration>
        <tie type="start" />
        <type>eighth</type>
        <stem>down</stem>
        <beam number="1">continue</beam>
        <notations>
          <tied type="start" />
          <technical>
            <string>1</string>
            <fret>3</fret>
          </technical>
        </notations>
      </note>
      <note default-x="321.15" default-y="-15">
        <pitch>
          <step>F</step>
          <octave>4</octave>
        </pitch>
        <duration>5040</duration>
        <type>eighth</type>
        <stem>down</stem>
        <beam number="1">end</beam>
        <notations>
          <technical>
            <string>2</string>
            <fret>6</fret>
            <string>1</string>
            <fret>3</fret>
          </technical>
        </notations>
      </note>
      <note default-x="321.15" default-y="0">
        <chord />
        <pitch>
          <step>G</step>
          <octave>4</octave>
        </pitch>
        <duration>5040</duration>
        <tie type="stop" />
        <type>eighth</type>
        <stem>down</stem>
        <notations>
          <tied type="stop" />
        </notations>
      </note>
      <barline location="right">
        <bar-style>light-heavy</bar-style>
      </barline>
    </measure>
  </part>
</score-partwise>